<?xml version="1.0" standalone="no"?><!DOCTYPE svg PUBLIC "-//W3C//DTD SVG 1.1//EN" "http://www.w3.org/Graphics/SVG/1.1/DTD/svg11.dtd"><svg t="1513921292810" class="icon" style="" viewBox="0 0 1024 1024" version="1.1" xmlns="http://www.w3.org/2000/svg" p-id="7080" xmlns:xlink="http://www.w3.org/1999/xlink" width="32" height="32"><defs><style type="text/css"></style></defs><path d="M497.343 71.404L322.639 292.797c-6.371 8.063-5.027 19.834 3.111 26.205 8.088 6.371 19.81 5.003 26.205-3.111l141.382-179.159v750.51L351.956 708.084c-6.396-8.088-18.145-9.482-26.205-3.111-8.114 6.396-9.458 18.145-3.111 26.205l174.704 221.395a18.65 18.65 0 0 0 14.659 7.117 18.65 18.65 0 0 0 14.659-7.117l174.705-221.395a18.61 18.61 0 0 0 4.008-11.547c0-5.525-2.439-10.975-7.117-14.658-8.088-6.371-19.813-5.002-26.205 3.111L530.667 887.242V136.756L672.05 315.917c6.395 8.088 18.143 9.482 26.205 3.111a18.622 18.622 0 0 0 7.117-14.659c0-4.056-1.32-8.138-4.01-11.548L526.659 71.428A18.61 18.61 0 0 0 512 64.311a18.66 18.66 0 0 0-14.657 7.093z" p-id="7081"></path></svg>