<?xml version="1.0" standalone="no"?><!DOCTYPE svg PUBLIC "-//W3C//DTD SVG 1.1//EN" "http://www.w3.org/Graphics/SVG/1.1/DTD/svg11.dtd"><svg t="1513920968101" class="icon" style="" viewBox="0 0 1024 1024" version="1.1" xmlns="http://www.w3.org/2000/svg" p-id="2558" xmlns:xlink="http://www.w3.org/1999/xlink" width="32" height="32"><defs><style type="text/css"></style></defs><path d="M986.368 509.184l-242.688-241.152A19.2 19.2 0 1 0 716.8 295.168l209.664 208.384H97.792L307.2 295.168a19.2 19.2 0 0 0-27.136-27.136l-242.432 241.152a19.2 19.2 0 0 0 0 27.136l242.688 245.248A19.2 19.2 0 0 0 307.2 754.432l-209.92-212.48h829.44l-209.92 212.48a19.2 19.2 0 1 0 27.392 26.88l242.688-245.248a19.2 19.2 0 0 0-0.512-26.88z" fill="#2c2c2c" p-id="2559"></path></svg>