<?xml version="1.0" standalone="no"?><!DOCTYPE svg PUBLIC "-//W3C//DTD SVG 1.1//EN" "http://www.w3.org/Graphics/SVG/1.1/DTD/svg11.dtd"><svg t="1513844731677" class="icon" style="" viewBox="0 0 1024 1024" version="1.1" xmlns="http://www.w3.org/2000/svg" p-id="2541" xmlns:xlink="http://www.w3.org/1999/xlink" width="32" height="32"><defs><style type="text/css"></style></defs><path d="M190.123 158.911h211.53a22.07 22.07 0 1 0 0-44.134H136.842a22.146 22.146 0 0 0-22.071 22.07v264.82a22.077 22.077 0 0 0 44.141 0.014V190.116l271.25 271.278a22.084 22.084 0 0 0 31.24-31.225L190.123 158.91zM909.23 622.333a22.064 22.064 0 0 0-22.064-22.064 22.057 22.057 0 0 0-22.077 22.05v211.558L593.824 562.586a22.132 22.132 0 0 0-31.238 0 22.132 22.132 0 0 0 0 31.238l271.298 271.251H622.34a22.07 22.07 0 0 0-0.02 44.141h264.84a22.146 22.146 0 0 0 22.064-22.063v-264.82z" p-id="2542"></path></svg>